<svg viewBox="0 0 800 800" xmlns="http://www.w3.org/2000/svg"><path d="M4.383715845032668,590.6330499304461 L131.4400561806026,664.7279655179559 M795.6162841549674,322.0348135221282 L705.936027405829,381.98916508498485 M705.936027405829,381.98916508498485 L650.1844036670998,418.26514940831896 M650.1844036670998,418.26514940831896 L597.8227523558494,451.1768943632168 M597.8227523558494,451.1768943632168 L550.9328061810916,479.5098425275326 M550.9328061810916,479.5098425275326 L506.7273519465967,505.1541544409151 M506.7273519465967,505.1541544409151 L463.4774511839328,529.1645318047017 M463.4774511839328,529.1645318047017 L418.83285273323906,552.6592507285234 M418.83285273323906,552.6592507285234 L373.143596677665,575.1906710205683 M373.143596677665,575.1906710205683 L326.7240610278161,596.384735844229 M326.7240610278161,596.384735844229 L279.8341840680606,615.9488404169858 M279.8341840680606,615.9488404169858 L240.4946454808673,630.8674832311581 M240.4946454808673,630.8674832311581 L193.22632697066499,646.9227043652652 M193.22632697066499,646.9227043652652 L162.54757487086616,656.2212364654035 M162.54757487086616,656.2212364654035 L131.4400561806026,664.7279655179559 M554.291067456707,184.3095633045182 L795.6162841549674,322.0348135221282 M4.383715845032668,590.6330499304461 L19.963021702038247,559.1916091030932 M19.963021702038247,559.1916091030932 L38.26296184615961,528.2331987088648 M38.26296184615961,528.2331987088648 L58.32092022878385,499.0133112045987 M58.32092022878385,499.0133112045987 L85.54712643057667,464.6790512340122 M85.54712643057667,464.6790512340122 L116.57018507921725,430.8597144621935 M116.57018507921725,430.8597144621935 L143.9168742799361,404.56407935536583 M143.9168742799361,404.56407935536583 L181.47654483263463,372.6661715594199 M181.47654483263463,372.6661715594199 L212.36771260568466,349.4707256226174 M212.36771260568466,349.4707256226174 L244.6565158246637,327.74002479334905 M244.6565158246637,327.74002479334905 L290.48698221323303,300.5219402761798 M290.48698221323303,300.5219402761798 L342.7343348512506,273.3586198434689 M342.7343348512506,273.3586198434689 L403.7634991648029,245.258387881201 M403.7634991648029,245.258387881201 L478.65917229651495,214.09177337426974 M478.65917229651495,214.09177337426974 L554.291067456707,184.3095633045182 M131.4400561806026,664.7279655179559 L112.1835827803801,598.7010164275807 M112.1835827803801,598.7010164275807 L67.4922520913072,550.6774158334218 M67.4922520913072,550.6774158334218 L23.07014424116062,546.8174474368964 M23.07014424116062,546.8174474368964 L4.383715845032668,590.6330499304461 M795.6162841549674,322.0348135221282 L777.1002175158806,251.4289984630389 M112.1835827803801,598.7010164275807 L177.12509832971716,571.0650853740581 M177.12509832971716,571.0650853740581 L240.55063735688452,541.1805809953539 M240.55063735688452,541.1805809953539 L297.7637322940927,512.214882853624 M297.7637322940927,512.214882853624 L350.9216835599511,483.95779132025035 M350.9216835599511,483.95779132025035 L399.4673010560299,457.3222737290173 M399.4673010560299,457.3222737290173 L443.62589713637783,432.66363436684236 M443.62589713637783,432.66363436684236 L483.863408304215,410.06574670115737 M483.863408304215,410.06574670115737 L520.6631896837141,389.48887577121656 M520.6631896837141,389.48887577121656 L560.4389138961278,367.441843797407 M560.4389138961278,367.441843797407 L600.4496877391023,345.47875540373155 M600.4496877391023,345.47875540373155 L640.8315515544714,323.54130647815833 M640.8315515544714,323.54130647815833 L681.7500889029459,301.56131773207045 M681.7500889029459,301.56131773207045 L723.4299722880212,279.4486634395152 M723.4299722880212,279.4486634395152 L750.6990603899558,265.1443870711897 M750.6990603899558,265.1443870711897 L777.1002175158806,251.4289984630389 M777.1002175158806,251.4289984630389 L675.0725718222025,171.0345423901218 M675.0725718222025,171.0345423901218 L573.201138857391,135.27203448204398 M573.201138857391,135.27203448204398 L554.291067456707,184.3095633045182 M573.201138857391,135.27203448204398 L513.0434667117645,147.41493682874088 M513.0434667117645,147.41493682874088 L459.68765924371246,161.25023144071383 M459.68765924371246,161.25023144071383 L410.74783071660596,177.0693697717635 M410.74783071660596,177.0693697717635 L366.1659626382416,194.67785332487125 M366.1659626382416,194.67785332487125 L325.47766623332785,214.0182778540465 M325.47766623332785,214.0182778540465 L288.33515073308126,235.03560727609832 M288.33515073308126,235.03560727609832 L254.46040963483551,257.6826002108071 M254.46040963483551,257.6826002108071 L220.2713617834948,284.7097119424206 M220.2713617834948,284.7097119424206 L186.75577981930564,315.75184065242746 M186.75577981930564,315.75184065242746 L153.4388107584615,351.4324320052747 M153.4388107584615,351.4324320052747 L120.38448650967746,392.0020600114167 M120.38448650967746,392.0020600114167 L87.84332769453408,437.46353172594604 M87.84332769453408,437.46353172594604 L56.457250963248896,487.0648226550114 M56.457250963248896,487.0648226550114 L39.236651911332785,516.9242718604175 M39.236651911332785,516.9242718604175 L23.07014424116062,546.8174474368964 M67.4922520913072,550.6774158334218 L116.26481819502169,504.5351884581358 M116.26481819502169,504.5351884581358 L165.61449816923306,460.500597262314 M165.61449816923306,460.500597262314 L213.61363146760573,420.2444961031371 M213.61363146760573,420.2444961031371 L261.01037457846525,383.015145596462 M261.01037457846525,383.015145596462 L307.6999942887234,348.83823727509184 M307.6999942887234,348.83823727509184 L353.5999050002987,317.71625384714156 M353.5999050002987,317.71625384714156 L398.64623058208747,289.630052349271 M398.64623058208747,289.630052349271 L448.4402379207521,261.4334920798123 M448.4402379207521,261.4334920798123 L498.37781435256585,236.13761496751962 M498.37781435256585,236.13761496751962 L548.2482677998214,213.86234879877796 M548.2482677998214,213.86234879877796 L597.8370539525231,194.71219023507513 M597.8370539525231,194.71219023507513 L636.6701238798989,181.85152231656159 M636.6701238798989,181.85152231656159 L675.0725718222025,171.0345423901218" stroke="black"  stroke-width="4"  fill="red"/></svg>