<svg viewBox="0 0 800 800" xmlns="http://www.w3.org/2000/svg"><path d="" stroke="black"  stroke-width="4"  fill="red"/>
<path d="" stroke="black"  stroke-width="4"  fill="red"/>
<path d="M580.8633389690151,185.99295552781052 L618.2582349803578,207.64985521747195 M618.2582349803578,207.64985521747195 L615.457682216626,195.71643550121928 M615.457682216626,195.71643550121928 L599.5137604757347,178.0017383858792 M599.5137604757347,178.0017383858792 L583.6181594079935,177.28692026157694 M583.6181594079935,177.28692026157694 L580.8633389690151,185.99295552781052 M580.8633389690151,185.99295552781052 L584.0206454681922,184.78663342850547 M584.0206454681922,184.78663342850547 L620.5862499663905,205.95985906447424 M620.5862499663905,205.95985906447424 L618.2582349803578,207.64985521747195 M620.5862499663905,205.95985906447424 L617.7678325189572,194.06918623644958 M615.457682216626,195.71643550121928 L617.7678325189572,194.06918623644958 M617.7678325189572,194.06918623644958 L602.2582880143996,176.56999598996902 M599.5137604757347,178.0017383858792 L602.2582880143996,176.56999598996902 M602.2582880143996,176.56999598996902 L586.7951331192019,176.14423744103658 M583.6181594079935,177.28692026157694 L586.7951331192019,176.14423744103658 M586.7951331192019,176.14423744103658 L584.0206454681922,184.78663342850547" stroke="black"  stroke-width="4"  fill="red"/>
<path d="M498.099447928923,220.82445277039574 L554.408563280905,253.5784108100491 M554.408563280905,253.5784108100491 L551.8801768972448,239.7486339222396 M551.8801768972448,239.7486339222396 L526.1531393635502,217.4308736711639 M526.1531393635502,217.4308736711639 L500.52373721782817,209.89500763262726 M500.52373721782817,209.89500763262726 L498.099447928923,220.82445277039574 M498.099447928923,220.82445277039574 L501.144461087491,219.44826964019114 M501.144461087491,219.44826964019114 L556.8734386256756,251.85938822191008 M556.8734386256756,251.85938822191008 L554.408563280905,253.5784108100491 M556.8734386256756,251.85938822191008 L554.3367312217863,238.10313712849512 M551.8801768972448,239.7486339222396 L554.3367312217863,238.10313712849512 M554.3367312217863,238.10313712849512 L528.9102208329078,215.9340626199227 M526.1531393635502,217.4308736711639 L528.9102208329078,215.9340626199227 M528.9102208329078,215.9340626199227 L503.5795387965509,208.60263560952797 M500.52373721782817,209.89500763262726 L503.5795387965509,208.60263560952797 M503.5795387965509,208.60263560952797 L501.144461087491,219.44826964019114" stroke="black"  stroke-width="4"  fill="red"/>
<path d="M418.72994474840164,259.19020932936564 L486.50212843196846,298.78832413178577 M486.50212843196846,298.78832413178577 L484.3393997864064,283.4288994429236 M484.3393997864064,283.4288994429236 L452.45889297811834,258.0757309889577 M452.45889297811834,258.0757309889577 L420.7194786387404,246.28442144120453 M420.7194786387404,246.28442144120453 L418.72994474840164,259.19020932936564 M418.72994474840164,259.19020932936564 L421.6456177980148,257.7000489353492 M421.6456177980148,257.7000489353492 L489.1213903717755,297.118344665422 M489.1213903717755,297.118344665422 L486.50212843196846,298.78832413178577 M489.1213903717755,297.118344665422 L486.93977061509474,281.7978524938706 M484.3393997864064,283.4288994429236 L486.93977061509474,281.7978524938706 M486.93977061509474,281.7978524938706 L455.22837964777744,256.52534488076583 M452.45889297811834,258.0757309889577 L455.22837964777744,256.52534488076583 M455.22837964777744,256.52534488076583 L423.65666402127675,244.85614387068227 M420.7194786387404,246.28442144120453 L423.65666402127675,244.85614387068227 M423.65666402127675,244.85614387068227 L421.6456177980148,257.7000489353492" stroke="black"  stroke-width="4"  fill="red"/>
<path d="M342.0564779212429,299.8703821174611 L415.2291803645462,342.81686490939 M415.2291803645462,342.81686490939 L413.44012078341495,326.7550873816989 M413.44012078341495,326.7550873816989 L378.4334092413214,299.76397490765873 M378.4334092413214,299.76397490765873 L343.6031199910649,285.79866068207735 M343.6031199910649,285.79866068207735 L342.0564779212429,299.8703821174611 M342.0564779212429,299.8703821174611 L344.9064348016981,298.3212064463254 M344.9064348016981,298.3212064463254 L417.93932880933926,341.1783752715039 M417.93932880933926,341.1783752715039 L415.2291803645462,342.81686490939 M417.93932880933926,341.1783752715039 L416.1464821625942,325.13567919744344 M413.44012078341495,326.7550873816989 L416.1464821625942,325.13567919744344 M416.1464821625942,325.13567919744344 L381.21542230989303,298.19633792397246 M378.4334092413214,299.76397490765873 L381.21542230989303,298.19633792397246 M381.21542230989303,298.19633792397246 L346.45942787795036,284.2740669287486 M343.6031199910649,285.79866068207735 L346.45942787795036,284.2740669287486 M346.45942787795036,284.2740669287486 L344.9064348016981,298.3212064463254" stroke="black"  stroke-width="4"  fill="red"/>
<path d="M266.8426237582195,341.9520720961257 L341.82454903219167,386.1603233082583 M341.82454903219167,386.1603233082583 L339.5569659577628,369.72783142126116 M339.5569659577628,369.72783142126116 L304.07487412487274,342.0284280594849 M304.07487412487274,342.0284280594849 L268.8038630233709,328.04578089903976 M268.8038630233709,328.04578089903976 L266.8426237582195,341.9520720961257 M266.8426237582195,341.9520720961257 L269.6279182879256,340.3400301844026 M269.6279182879256,340.3400301844026 L344.62459484933567,384.54943338513397 M344.62459484933567,384.54943338513397 L341.82454903219167,386.1603233082583 M344.62459484933567,384.54943338513397 L342.39969764326526,368.1255982676088 M339.5569659577628,369.72783142126116 L342.39969764326526,368.1255982676088 M342.39969764326526,368.1255982676088 L306.8691498607275,340.41458552737527 M304.07487412487274,342.0284280594849 L306.8691498607275,340.41458552737527 M306.8691498607275,340.41458552737527 L271.5486034650647,326.3929809300822 M268.8038630233709,328.04578089903976 L271.5486034650647,326.3929809300822 M271.5486034650647,326.3929809300822 L269.6279182879256,340.3400301844026" stroke="black"  stroke-width="4"  fill="red"/>
<path d="M194.23402569319506,386.38278423376096 L265.14031968646736,428.37978966045966 M265.14031968646736,428.37978966045966 L261.1820968945495,411.9973153661733 M261.1820968945495,411.9973153661733 L229.3982933452019,386.1429592831861 M229.3982933452019,386.1429592831861 L197.84371521197426,374.51019572269047 M197.84371521197426,374.51019572269047 L194.23402569319506,386.38278423376096 M194.23402569319506,386.38278423376096 L196.88061477311413,384.656544263991 M196.88061477311413,384.656544263991 L268.1044862214414,426.83437819265714 M268.1044862214414,426.83437819265714 L265.14031968646736,428.37978966045966 M268.1044862214414,426.83437819265714 L264.21105157498755,410.43428602408324 M261.1820968945495,411.9973153661733 L264.21105157498755,410.43428602408324 M264.21105157498755,410.43428602408324 L232.20442420545095,384.4646463086199 M229.3982933452019,386.1429592831861 L232.20442420545095,384.4646463086199 M232.20442420545095,384.4646463086199 L200.4265081929746,372.68972191795456 M197.84371521197426,374.51019572269047 L200.4265081929746,372.68972191795456 M200.4265081929746,372.68972191795456 L196.88061477311413,384.656544263991" stroke="black"  stroke-width="4"  fill="red"/>
<path d="M126.64901734786798,434.6280405453465 L182.75209936127442,468.0110594272088 M182.75209936127442,468.0110594272088 L177.9538503812669,452.7660888489414 M177.9538503812669,452.7660888489414 L154.3946655705867,430.8981808232377 M154.3946655705867,430.8981808232377 L131.08813759960935,424.8975846996593 M131.08813759960935,424.8975846996593 L126.64901734786798,434.6280405453465 M126.64901734786798,434.6280405453465 L129.09387127750853,432.74319303677134 M129.09387127750853,432.74319303677134 L185.94317784524938,466.564342826789 M185.94317784524938,466.564342826789 L182.75209936127442,468.0110594272088 M185.94317784524938,466.564342826789 L181.1470567524758,451.2636507201919 M177.9538503812669,452.7660888489414 L181.1470567524758,451.2636507201919 M181.1470567524758,451.2636507201919 L157.2132696669375,429.2134775924668 M154.3946655705867,430.8981808232377 L157.2132696669375,429.2134775924668 M157.2132696669375,429.2134775924668 L133.53097697436004,422.95396460942527 M131.08813759960935,424.8975846996593 L133.53097697436004,422.95396460942527 M133.53097697436004,422.95396460942527 L129.09387127750853,432.74319303677134" stroke="black"  stroke-width="4"  fill="red"/>
<path d="M61.96118021597431,486.59867447754857 L96.8422702432216,507.4521530097435 M96.8422702432216,507.4521530097435 L91.97284780576558,492.8471617797792 M91.97284780576558,492.8471617797792 L79.07948052182144,477.2455149598869 M79.07948052182144,477.2455149598869 L66.44848893375195,477.596835012557 M66.44848893375195,477.596835012557 L61.96118021597431,486.59867447754857 M61.96118021597431,486.59867447754857 L64.39203405007152,484.5831061964908 M64.39203405007152,484.5831061964908 L100.06859593115996,505.90830298804815 M100.06859593115996,505.90830298804815 L96.8422702432216,507.4521530097435 M100.06859593115996,505.90830298804815 L95.21240251360166,491.3321571974087 M91.97284780576558,492.8471617797792 L95.21240251360166,491.3321571974087 M95.21240251360166,491.3321571974087 L81.90849985987802,475.4248211487195 M79.07948052182144,477.2455149598869 L81.90849985987802,475.4248211487195 M81.90849985987802,475.4248211487195 L68.86837149672743,475.5949172107728 M66.44848893375195,477.596835012557 L68.86837149672743,475.5949172107728 M68.86837149672743,475.5949172107728 L64.39203405007152,484.5831061964908" stroke="black"  stroke-width="4"  fill="red"/>
<path d="M1.4884573815941167,543.8964657779596 L11.955755431206285,550.1847795775328 M11.955755431206285,550.1847795775328 L7.285685310374333,531.9314263792885 M7.285685310374333,531.9314263792885 L6.421942993572372,530.2055742626566 M6.421942993572372,530.2055742626566 L5.601640820626869,530.9205339004101 M5.601640820626869,530.9205339004101 L1.4884573815941167,543.8964657779596 M0.010478384005523367,545.5960788268253 L1.4884573815941167,543.8964657779596 M11.955755431206285,550.1847795775328 L9.656133379899813,551.3915620218092 M0.010478384005523367,545.5960788268253 L9.656133379899813,551.3915620218092 M5.019629848405259,532.9281991352196 L7.285685310374333,531.9314263792885 M9.656133379899813,551.3915620218092 L5.019629848405259,532.9281991352196 M5.019629848405259,532.9281991352196 L4.5365798306388,531.8926778703321 M4.5365798306388,531.8926778703321 L6.421942993572372,530.2055742626566 M4.080417492557274,532.3643429431818 L5.601640820626869,530.9205339004101 M4.5365798306388,531.8926778703321 L4.080417492557274,532.3643429431818 M4.080417492557274,532.3643429431818 L0.010478384005523367,545.5960788268253" stroke="black"  stroke-width="4"  fill="red"/>
<path d="M120.54291000828403,618.0166331827933 L139.1534921937494,597.8730765671992 M139.1534921937494,597.8730765671992 L158.7290361272593,579.1944638229861 M158.7290361272593,579.1944638229861 L184.4345897981263,556.951540221904 M184.4345897981263,556.951540221904 L220.0972778528548,527.727847189349 M220.0972778528548,527.727847189349 L255.69151297356157,499.6059808973447 M255.69151297356157,499.6059808973447 L287.3575732707634,476.24947171932456 M287.3575732707634,476.24947171932456 L319.3549807272868,454.5550491483866 M319.3549807272868,454.5550491483866 L356.6065785943557,431.13000951824426 M356.6065785943557,431.13000951824426 L402.2379740493901,404.20439002281 M402.2379740493901,404.20439002281 L459.75448308632707,371.9816150899145 M459.75448308632707,371.9816150899145 L521.22943074316,338.8543663065577 M521.22943074316,338.8543663065577 L568.359963713541,314.7458428499766 M568.359963713541,314.7458428499766 L612.012581439503,293.870670309416 M612.012581439503,293.870670309416 L662.0025857366509,271.77554701137956 M662.0025857366509,271.77554701137956 L708.5463519555472,253.0337168098468 M708.5463519555472,253.0337168098468 L739.0129856428299,242.26893288296765 M739.0129856428299,242.26893288296765 L762.1344713005541,235.31291839485283 M762.1344713005541,235.31291839485283 L784.4819074477216,229.88526605767908 M784.4819074477216,229.88526605767908 L799.9895216159945,238.8314170336078 M799.9895216159945,238.8314170336078 L783.5686317467247,247.53461731729976 M783.5686317467247,247.53461731729976 L767.1151728375037,257.7999817201023 M767.1151728375037,257.7999817201023 L746.2564869488713,272.3295599121224 M746.2564869488713,272.3295599121224 L719.1900708736508,292.2478973421598 M719.1900708736508,292.2478973421598 L683.4138783112177,318.1216676251619 M683.4138783112177,318.1216676251619 L646.6260541109955,343.6163227669824 M646.6260541109955,343.6163227669824 L605.0961207253229,370.9002248566445 M605.0961207253229,370.9002248566445 L555.9897941474283,401.64180924039897 M555.9897941474283,401.64180924039897 L492.23282894102636,440.1746961536894 M492.23282894102636,440.1746961536894 L437.99805173250013,471.6159555225405 M437.99805173250013,471.6159555225405 L398.08618315361736,493.60768463056047 M398.08618315361736,493.60768463056047 L360.0647065456234,513.2446248642325 M360.0647065456234,513.2446248642325 L321.41538974422053,531.7239613076382 M321.41538974422053,531.7239613076382 L274.0864970816513,553.2991868276673 M274.0864970816513,553.2991868276673 L227.20907239529836,575.0174207351818 M227.20907239529836,575.0174207351818 L192.7264072059445,591.8041180691267 M192.7264072059445,591.8041180691267 L162.89798955333993,606.8721386714002 M162.89798955333993,606.8721386714002 L146.66397943072957,615.2615616252799 M146.66397943072957,615.2615616252799 L130.26120709310237,623.8557625589634 M120.54291000828403,618.0166331827933 L130.26120709310237,623.8557625589634 M788.4633527559356,219.46192714200959 L784.4819074477216,229.88526605767908 M124.69576878390455,604.7757760519829 L149.29332609594252,582.0019850935703 M149.29332609594252,582.0019850935703 L183.25068472663148,552.7528020834401 M183.25068472663148,552.7528020834401 L256.63996956488427,492.48550979249 M256.63996956488427,492.48550979249 L295.533005026686,462.3826885308815 M295.533005026686,462.3826885308815 L330.0853932548247,437.48962517245377 M330.0853932548247,437.48962517245377 L365.3338050956511,413.9260700851072 M365.3338050956511,413.9260700851072 L405.0830075893669,389.49816672464794 M405.0830075893669,389.49816672464794 L449.3883907717168,364.3791509503511 M449.3883907717168,364.3791509503511 L504.10788308223505,335.28496769040464 M504.10788308223505,335.28496769040464 L556.6524194136053,309.100811688912 M556.6524194136053,309.100811688912 L603.0449001031434,287.74295648525657 M603.0449001031434,287.74295648525657 L648.3334391793848,268.5582487815105 M648.3334391793848,268.5582487815105 L673.708228671293,258.50052996238804 M673.708228671293,258.50052996238804 L699.334470194814,248.83401488918395 M699.334470194814,248.83401488918395 L743.8888011814147,233.27209306342775 M743.8888011814147,233.27209306342775 L766.9458008656895,225.89512904118385 M766.9458008656895,225.89512904118385 L788.4633527559356,219.46192714200959 M124.69576878390455,604.7757760519829 L120.54291000828403,618.0166331827933 M792.2900216950077,216.6499695102969 L788.4633527559356,219.46192714200959 M796.085812815143,223.8562799087603 L792.2900216950077,216.6499695102969 M799.9895216159945,238.8314170336078 L796.085812815143,223.8562799087603 M130.26120709310237,623.8557625589634 L125.64206585056712,605.3438855505672 M125.64206585056712,605.3438855505672 L161.17801517365353,589.1231138950568 M161.17801517365353,589.1231138950568 L207.67987719443215,567.352853082334 M207.67987719443215,567.352853082334 L305.41741433898255,521.4801502983103 M305.41741433898255,521.4801502983103 L354.7566419133131,497.4894614425026 M354.7566419133131,497.4894614425026 L395.837778445646,476.37446401486 M395.837778445646,476.37446401486 L435.1902107270928,455.14233119734865 M435.1902107270928,455.14233119734865 L476.76881843207,431.6881312427091 M476.76881843207,431.6881312427091 L520.4148568666834,406.0692710826336 M520.4148568666834,406.0692710826336 L571.8068378878284,374.89475780081705 M571.8068378878284,374.89475780081705 L618.8627566478451,345.39075780952 M618.8627566478451,345.39075780952 L658.1389661109422,319.8000618616719 M658.1389661109422,319.8000618616719 L694.3464668842462,295.26740852493117 M694.3464668842462,295.26740852493117 L713.747158658548,281.711604443982 M713.747158658548,281.711604443982 L732.724555213219,268.1656876867415 M732.724555213219,268.1656876867415 L764.6673885908142,245.27597339317197 M764.6673885908142,245.27597339317197 L780.9283036486315,233.96407025207537 M780.9283036486315,233.96407025207537 L796.085812815143,223.8562799087603 M125.15786531863978,604.3048704723477 L124.69576878390455,604.7757760519829 M125.64206585056712,605.3438855505672 L125.15786531863978,604.3048704723477 M125.15786531863978,604.3048704723477 L130.9723471019105,599.2318070662817 M130.9723471019105,599.2318070662817 L137.03985379883733,594.224814042783 M137.03985379883733,594.224814042783 L156.1183090131061,579.452085547595 M156.1183090131061,579.452085547595 L177.31034213852914,564.3040535214806 M177.31034213852914,564.3040535214806 L205.7210120743514,545.4546531202169 M205.7210120743514,545.4546531202169 L243.5271117278599,521.7955307717377 M243.5271117278599,521.7955307717377 L321.15281359143603,474.9814035241453 M321.15281359143603,474.9814035241453 L402.21169976354656,426.3633260763569 M402.21169976354656,426.3633260763569 L460.8409809646985,392.3273474212922 M460.8409809646985,392.3273474212922 L586.7584917897605,320.8754730642055 M586.7584917897605,320.8754730642055 L664.2671946487578,278.06603127608884 M664.2671946487578,278.06603127608884 L701.4947525064945,257.86433758378394 M701.4947525064945,257.86433758378394 L732.0418173898338,241.69246360965087 M732.0418173898338,241.69246360965087 L756.1316003587585,230.1137032583431 M756.1316003587585,230.1137032583431 L774.3377149839865,222.59969794253925 M774.3377149839865,222.59969794253925 L792.2900216950077,216.6499695102969" stroke="black"  stroke-width="4"  fill="red"/></svg>