<svg viewBox="0 0 800 800" xmlns="http://www.w3.org/2000/svg"><path d="M553.9766533531318,376.5681156228227 L472.2826702062348,423.67926724520044 M472.2826702062348,423.67926724520044 L445.5563365342475,391.083486009607 M445.5563365342475,391.083486009607 L446.71896898249145,362.06246032563433 M446.71896898249145,362.06246032563433 L497.21048394291915,361.3135343945705 M497.21048394291915,361.3135343945705 L553.9766533531318,376.5681156228227 M553.9766533531318,376.5681156228227 L554.3537663582658,365.3764328876512 M554.3537663582658,365.3764328876512 L476.08493294321045,410.506177873997 M476.08493294321045,410.506177873997 L472.2826702062348,423.67926724520044 M476.08493294321045,410.506177873997 L448.8276178641894,377.3026332176 M445.5563365342475,391.083486009607 L448.8276178641894,377.3026332176 M448.8276178641894,377.3026332176 L449.0678532476775,350.036049405584 M446.71896898249145,362.06246032563433 L449.0678532476775,350.036049405584 M449.0678532476775,350.036049405584 L496.51776015215466,349.82135537955315 M497.21048394291915,361.3135343945705 L496.51776015215466,349.82135537955315 M496.51776015215466,349.82135537955315 L554.3537663582658,365.3764328876512" stroke="black"  stroke-width="4"  fill="red"/>
<path d="M641.0653728179153,304.6732677585749 L490.9862710222592,281.6125225344702 M490.9862710222592,281.6125225344702 L502.19129148309685,321.29152346720116 M502.19129148309685,321.29152346720116 L541.0374795876302,347.39030557472836 M541.0374795876302,347.39030557472836 L597.2010148499967,335.8974120917402 M597.2010148499967,335.8974120917402 L641.0653728179153,304.6732677585749 M641.0653728179153,304.6732677585749 L643.2237999761836,319.15537195509205 M643.2237999761836,319.15537195509205 L488.0630273419588,295.30955666302725 M488.0630273419588,295.30955666302725 L490.9862710222592,281.6125225344702 M488.0630273419588,295.30955666302725 L499.39540920263255,334.6880814952145 M502.19129148309685,321.29152346720116 L499.39540920263255,334.6880814952145 M499.39540920263255,334.6880814952145 L540.5447034697183,361.7268363267958 M541.0374795876302,347.39030557472836 L540.5447034697183,361.7268363267958 M540.5447034697183,361.7268363267958 L599.5122956545765,350.0817381762882 M597.2010148499967,335.8974120917402 L599.5122956545765,350.0817381762882 M599.5122956545765,350.0817381762882 L643.2237999761836,319.15537195509205" stroke="black"  stroke-width="4"  fill="red"/>
<path d="M335.38451886839846,505.8823847705737 L270.41389736119106,367.36070183589084 M270.41389736119106,367.36070183589084 L327.81696067205473,368.1156870947175 M327.81696067205473,368.1156870947175 L397.15581518771694,422.0268968416501 M397.15581518771694,422.0268968416501 L384.4524928112303,488.6829539322267 M384.4524928112303,488.6829539322267 L335.38451886839846,505.8823847705737 M335.38451886839846,505.8823847705737 L334.32518489707115,491.2693307567269 M334.32518489707115,491.2693307567269 L270.5853636905888,355.39275190966265 M270.5853636905888,355.39275190966265 L270.41389736119106,367.36070183589084 M270.5853636905888,355.39275190966265 L327.6478440612191,356.24970791206124 M327.81696067205473,368.1156870947175 L327.6478440612191,356.24970791206124 M327.6478440612191,356.24970791206124 L396.62135554974657,408.75519704576016 M397.15581518771694,422.0268968416501 L396.62135554974657,408.75519704576016 M396.62135554974657,408.75519704576016 L383.0071889142247,474.0831460359698 M384.4524928112303,488.6829539322267 L383.0071889142247,474.0831460359698 M383.0071889142247,474.0831460359698 L334.32518489707115,491.2693307567269" stroke="black"  stroke-width="4"  fill="red"/>
<path d="M127.51579322877723,604.8048943872625 L31.707511570033716,399.14441341054777 M31.707511570033716,399.14441341054777 L100.9696611883536,396.8933361615264 M100.9696611883536,396.8933361615264 L180.68322535580478,486.2461620617205 M180.68322535580478,486.2461620617205 L189.5874278299466,586.7603760992719 M189.5874278299466,586.7603760992719 L127.51579322877723,604.8048943872625 M127.51579322877723,604.8048943872625 L127.02648752584133,590.6777781531036 M127.02648752584133,590.6777781531036 L31.93012003326743,386.5787272812571 M31.93012003326743,386.5787272812571 L31.707511570033716,399.14441341054777 M31.93012003326743,386.5787272812571 L100.87157492893732,384.4243255628278 M100.9696611883536,396.8933361615264 L100.87157492893732,384.4243255628278 M100.87157492893732,384.4243255628278 L180.32612758625976,472.9389872495734 M180.68322535580478,486.2461620617205 L180.32612758625976,472.9389872495734 M180.32612758625976,472.9389872495734 L188.73465298665508,572.6455737159026 M189.5874278299466,586.7603760992719 L188.73465298665508,572.6455737159026 M188.73465298665508,572.6455737159026 L127.02648752584133,590.6777781531036" stroke="black"  stroke-width="4"  fill="red"/>
<path d="M664.7123271465452,312.1686325448845 L252.37390753664442,248.8067362947216 M252.37390753664442,248.8067362947216 L282.2310890069331,208.32133521900354 M282.2310890069331,208.32133521900354 L486.4623032257748,219.84632699668825 M486.4623032257748,219.84632699668825 L673.7284015579119,268.44674997920254 M673.7284015579119,268.44674997920254 L664.7123271465452,312.1686325448845 M664.7123271465452,312.1686325448845 L664.2178396259859,298.76644875501995 M664.2178396259859,298.76644875501995 L252.9075889143228,235.57306723755 M252.9075889143228,235.57306723755 L252.37390753664442,248.8067362947216 M252.9075889143228,235.57306723755 L282.81319043144117,195.19510561273754 M282.2310890069331,208.32133521900354 L282.81319043144117,195.19510561273754 M282.81319043144117,195.19510561273754 L486.45522306350495,206.59708924485557 M486.4623032257748,219.84632699668825 L486.45522306350495,206.59708924485557 M486.45522306350495,206.59708924485557 L673.1048791735091,255.12540948776217 M673.7284015579119,268.44674997920254 L673.1048791735091,255.12540948776217 M673.1048791735091,255.12540948776217 L664.2178396259859,298.76644875501995" stroke="black"  stroke-width="4"  fill="red"/>
<path d="M405.0227230473233,477.1293410030328 L720.6613724536996,295.0740103515441 M720.6613724536996,295.0740103515441 L768.1374339080955,331.5205047653778 M768.1374339080955,331.5205047653778 L643.2800484883126,431.9542829493487 M643.2800484883126,431.9542829493487 L468.77025055595004,504.3287882257413 M468.77025055595004,504.3287882257413 L405.0227230473233,477.1293410030328 M405.0227230473233,477.1293410030328 L405.09633262553893,463.7331462056583 M405.09633262553893,463.7331462056583 L720.6590820528047,281.75196281489804 M720.6590820528047,281.75196281489804 L720.6613724536996,295.0740103515441 M720.6590820528047,281.75196281489804 L768.2924884299664,318.1384904980925 M768.1374339080955,331.5205047653778 L768.2924884299664,318.1384904980925 M768.2924884299664,318.1384904980925 L643.2944810249171,418.5754341605566 M643.2800484883126,431.9542829493487 L643.2944810249171,418.5754341605566 M643.2944810249171,418.5754341605566 L468.75026955328644,491.01904168311205 M468.77025055595004,504.3287882257413 L468.75026955328644,491.01904168311205 M468.75026955328644,491.01904168311205 L405.09633262553893,463.7331462056583" stroke="black"  stroke-width="4"  fill="red"/>
<path d="M68.37248191952199,374.77312925491896 L477.37747849710433,311.7992303608319 M477.37747849710433,311.7992303608319 L436.55361324943476,274.9988271740127 M436.55361324943476,274.9988271740127 L244.6357679652118,282.9163983913081 M244.6357679652118,282.9163983913081 L71.50793370961577,331.17407247651244 M71.50793370961577,331.17407247651244 L68.37248191952199,374.77312925491896 M68.37248191952199,374.77312925491896 L67.43048188798258,388.2160322804902 M67.43048188798258,388.2160322804902 L478.23188095728005,324.95502050154596 M478.23188095728005,324.95502050154596 L477.37747849710433,311.7992303608319 M478.23188095728005,324.95502050154596 L437.7050234359799,287.93408081561876 M436.55361324943476,274.9988271740127 L437.7050234359799,287.93408081561876 M437.7050234359799,287.93408081561876 L244.53758119362192,296.08800761019324 M244.6357679652118,282.9163983913081 L244.53758119362192,296.08800761019324 M244.53758119362192,296.08800761019324 L70.12090379264987,344.5092360648667 M71.50793370961577,331.17407247651244 L70.12090379264987,344.5092360648667 M70.12090379264987,344.5092360648667 L67.43048188798258,388.2160322804902" stroke="black"  stroke-width="4"  fill="red"/>
<path d="M181.7600745412002,414.14485036420285 L262.6632727781184,587.1459843876689 M262.6632727781184,587.1459843876689 L316.0267317769003,562.387284938636 M316.0267317769003,562.387284938636 L322.8719931788145,485.01770182352243 M322.8719931788145,485.01770182352243 L249.40520897163765,420.17222695065715 M249.40520897163765,420.17222695065715 L181.7600745412002,414.14485036420285 M181.7600745412002,414.14485036420285 L181.4076519991885,426.1550178750834 M181.4076519991885,426.1550178750834 L263.52975015079824,601.7906777574881 M263.52975015079824,601.7906777574881 L262.6632727781184,587.1459843876689 M263.52975015079824,601.7906777574881 L317.1307704229981,576.9825024022091 M316.0267317769003,562.387284938636 L317.1307704229981,576.9825024022091 M317.1307704229981,576.9825024022091 L323.2105289100432,498.3269003986203 M322.8719931788145,485.01770182352243 L323.2105289100432,498.3269003986203 M323.2105289100432,498.3269003986203 L249.29516559294052,432.1535996476496 M249.40520897163765,420.17222695065715 L249.29516559294052,432.1535996476496 M249.29516559294052,432.1535996476496 L181.4076519991885,426.1550178750834" stroke="black"  stroke-width="4"  fill="red"/></svg>