<svg viewBox="0 0 800 800" xmlns="http://www.w3.org/2000/svg"><path d="M557.8688322649264,150.49805871174834 L780.0604161751929,277.1800157333155 M780.0604161751929,277.1800157333155 L783.2793061116329,272.1254180167823 M564.0788053106116,147.1742021580944 L783.2793061116329,272.1254180167823 M564.0788053106116,147.1742021580944 L557.8688322649264,150.49805871174834 M557.8688322649264,150.49805871174834 L556.5397980549013,178.03435577596042 M556.5397980549013,178.03435577596042 L798.7857074822003,316.2658723701105 M798.7857074822003,316.2658723701105 L780.0604161751929,277.1800157333155 M791.9883759522513,290.34279818499175 L783.2793061116329,272.1254180167823 M798.7857074822003,316.2658723701105 L791.9883759522513,290.34279818499175 M564.0788053106116,147.1742021580944 L563.4796481588305,160.0347076142458 M563.4796481588305,160.0347076142458 L791.9883759522513,290.34279818499175 M563.4796481588305,160.0347076142458 L556.5397980549013,178.03435577596042" stroke="black"  stroke-width="4"  fill="red"/>
<path d="M33.38868673542055,531.3231231188506 L124.43586050962591,584.2870483906531 M137.52412113433104,589.8456671661429 L124.43586050962591,584.2870483906531 M138.2715673432167,590.0554997084769 L137.52412113433104,589.8456671661429 M28.316244095953152,526.0965930906617 L138.2715673432167,590.0554997084769 M28.2011225158995,526.2541538377386 L28.316244095953152,526.0965930906617 M28.2011225158995,526.2541538377386 L33.38868673542055,531.3231231188506 M33.38868673542055,531.3231231188506 L24.76000768191483,532.5455990272033 M24.76000768191483,532.5455990272033 L5.220066052567404,573.9283000630073 M116.3199885348007,638.6689138007648 L5.220066052567404,573.9283000630073 M129.244176848503,593.3371906542866 L116.3199885348007,638.6689138007648 M129.244176848503,593.3371906542866 L124.43586050962591,584.2870483906531 M129.244176848503,593.3371906542866 L137.52412113433104,589.8456671661429 M120.44871725735135,652.8257978419056 L116.3199885348007,638.6689138007648 M138.2715673432167,590.0554997084769 L129.67044496413,621.5877583987321 M129.67044496413,621.5877583987321 L120.44871725735135,652.8257978419056 M28.316244095953152,526.0965930906617 L14.475684288459263,554.5096503652912 M14.475684288459263,554.5096503652912 L1.214292517799663,583.3211988506259 M120.44871725735135,652.8257978419056 L1.214292517799663,583.3211988506259 M28.2011225158995,526.2541538377386 L24.76000768191483,532.5455990272033 M5.220066052567404,573.9283000630073 L1.214292517799663,583.3211988506259" stroke="black"  stroke-width="4"  fill="red"/>
<path d="M395.1534385533594,217.54643170164644 L660.6335677561788,369.62702814281084 M665.0352975869948,366.5031876988942 L660.6335677561788,369.62702814281084 M400.55388831683916,215.01985355536357 L665.0352975869948,366.5031876988942 M395.1534385533594,217.54643170164644 L400.55388831683916,215.01985355536357 M395.1534385533594,217.54643170164644 L388.27923219232514,249.90924333350188 M388.27923219232514,249.90924333350188 L667.4033155797608,409.9772278628611 M667.4033155797608,409.9772278628611 L660.6335677561788,369.62702814281084 M671.8688063198297,407.08835494674673 L667.4033155797608,409.9772278628611 M671.8688063198297,407.08835494674673 L665.0352975869948,366.5031876988942 M400.55388831683916,215.01985355536357 L393.6101738258148,247.54221076259756 M393.6101738258148,247.54221076259756 L671.8688063198297,407.08835494674673 M388.27923219232514,249.90924333350188 L393.6101738258148,247.54221076259756" stroke="black"  stroke-width="4"  fill="red"/>
<path d="M234.03982360753423,305.58076139546927 L507.10501437555945,462.8417799686469 M512.3543593519169,460.17377720529817 L507.10501437555945,462.8417799686469 M238.652502247144,302.5723956744004 L512.3543593519169,460.17377720529817 M234.03982360753423,305.58076139546927 L238.652502247144,302.5723956744004 M234.03982360753423,305.58076139546927 L226.32236498200234,336.828754846706 M226.32236498200234,336.828754846706 L514.8961803567743,503.1960946559636 M514.8961803567743,503.1960946559636 L507.10501437555945,462.8417799686469 M520.0181075089984,500.25668875763347 L514.8961803567743,503.1960946559636 M520.0181075089984,500.25668875763347 L512.3543593519169,460.17377720529817 M238.652502247144,302.5723956744004 L231.05627092446736,333.6943921115406 M231.05627092446736,333.6943921115406 L520.0181075089984,500.25668875763347 M226.32236498200234,336.828754846706 L231.05627092446736,333.6943921115406" stroke="black"  stroke-width="4"  fill="red"/>
<path d="M105.93561732394141,413.6728571684436 L318.5987813366966,536.805259827435 M325.1373193942972,534.8568492765482 L318.5987813366966,536.805259827435 M109.32049924920318,409.91943413255666 L325.1373193942972,534.8568492765482 M105.93561732394141,413.6728571684436 L109.32049924920318,409.91943413255666 M105.93561732394141,413.6728571684436 L90.11498085995908,453.8519927338802 M90.11498085995908,453.8519927338802 L334.77315465695693,595.7148439563443 M334.77315465695693,595.7148439563443 L318.5987813366966,536.805259827435 M340.93180992972935,592.9503269973054 L334.77315465695693,595.7148439563443 M340.93180992972935,592.9503269973054 L325.1373193942972,534.8568492765482 M109.32049924920318,409.91943413255666 L93.86841959240252,449.71933727333766 M93.86841959240252,449.71933727333766 L340.93180992972935,592.9503269973054 M90.11498085995908,453.8519927338802 L93.86841959240252,449.71933727333766" stroke="black"  stroke-width="4"  fill="red"/></svg>